<svg xmlns="http://www.w3.org/2000/svg" version="1.1" xmlns:xlink="http://www.w3.org/1999/xlink" xmlns:svgjs="http://svgjs.dev/svgjs" width="1500" height="1500" viewBox="0 0 1500 1500"><rect width="1500" height="1500" fill="#b923e1"></rect><g transform="matrix(0.6666666666666666,0,0,0.6666666666666666,249.39393939393938,438.58569500674764)"><svg viewBox="0 0 396 247" data-background-color="#b923e1" preserveAspectRatio="xMidYMid meet" height="935" width="1500" xmlns="http://www.w3.org/2000/svg" xmlns:xlink="http://www.w3.org/1999/xlink"><g id="tight-bounds" transform="matrix(1,0,0,1,0.2400000000000091,-0.09999999999999432)"><svg viewBox="0 0 395.52 247.2" height="247.2" width="395.52"><g><svg></svg></g><g><svg viewBox="0 0 395.52 247.2" height="247.2" width="395.52"><g transform="matrix(1,0,0,1,75.54432,77.04392888191447)"><svg viewBox="0 0 244.43135999999998 93.11214223617104" height="93.11214223617104" width="244.43135999999998"><g><svg viewBox="0 0 244.43135999999998 93.11214223617104" height="93.11214223617104" width="244.43135999999998"><g><svg viewBox="0 0 244.43135999999998 93.11214223617104" height="93.11214223617104" width="244.43135999999998"><g id="textblocktransform"><svg viewBox="0 0 244.43135999999998 93.11214223617104" height="93.11214223617104" width="244.43135999999998" id="textblock"><g><svg viewBox="0 0 244.43135999999998 93.11214223617104" height="93.11214223617104" width="244.43135999999998"><g transform="matrix(1,0,0,1,0,0)"><svg width="244.43135999999998" viewBox="-0.45 -37.7 127.44 48.550000000000004" height="93.11214223617104" data-palette-color="#ffffff"><path d="M10.2-34.55L10.2-5Q10.2 0.4 7.85 3.18 5.5 5.95 1.25 7.6L1.25 7.6-0.45 3.1Q1.4 2.2 2.3 1.18 3.2 0.15 3.5-1.3 3.8-2.75 3.8-5.25L3.8-5.25 3.8-34.55 10.2-34.55ZM34.75-13.85Q34.75-13.4 34.6-11.3L34.6-11.3 20.95-11.3Q21.15-7.2 22.37-5.58 23.6-3.95 25.85-3.95L25.85-3.95Q27.4-3.95 28.65-4.48 29.9-5 31.35-6.15L31.35-6.15 33.9-2.65Q30.4 0.75 25.5 0.75L25.5 0.75Q20.3 0.75 17.52-2.85 14.75-6.45 14.75-13L14.75-13Q14.75-19.55 17.4-23.35 20.05-27.15 24.9-27.15L24.9-27.15Q29.55-27.15 32.15-23.78 34.75-20.4 34.75-13.85L34.75-13.85ZM28.75-15.3L28.75-15.65Q28.75-19.4 27.85-21.13 26.95-22.85 24.95-22.85L24.95-22.85Q23.1-22.85 22.12-21.18 21.15-19.5 20.95-15.3L20.95-15.3 28.75-15.3ZM48.75-33.05Q47.35-33.05 46.67-32.3 46-31.55 46-30L46-30 46-26.45 51.05-26.45 50.35-22 46-22 46 0 39.85 0 39.85-22 36.55-22 36.55-26.45 39.85-26.45 39.85-29.8Q39.85-33.4 41.95-35.55 44.05-37.7 47.95-37.7L47.95-37.7Q51-37.7 53.85-36.2L53.85-36.2 52.15-32.2Q50.4-33.05 48.75-33.05L48.75-33.05ZM63.54-33.05Q62.14-33.05 61.47-32.3 60.79-31.55 60.79-30L60.79-30 60.79-26.45 65.84-26.45 65.14-22 60.79-22 60.79 0 54.64 0 54.64-22 51.34-22 51.34-26.45 54.64-26.45 54.64-29.8Q54.64-33.4 56.74-35.55 58.84-37.7 62.74-37.7L62.74-37.7Q65.79-37.7 68.64-36.2L68.64-36.2 66.94-32.2Q65.19-33.05 63.54-33.05L63.54-33.05ZM80.29-27.1Q81.44-27.1 82.34-26.75L82.34-26.75 81.34-20.85Q80.34-21.1 79.49-21.1L79.49-21.1Q77.59-21.1 76.49-19.45 75.39-17.8 74.79-14.55L74.79-14.55 74.79 0 68.64 0 68.64-26.45 73.99-26.45 74.44-21.85Q76.29-27.1 80.29-27.1L80.29-27.1ZM104.04-13.85Q104.04-13.4 103.89-11.3L103.89-11.3 90.24-11.3Q90.44-7.2 91.66-5.58 92.89-3.95 95.14-3.95L95.14-3.95Q96.69-3.95 97.94-4.48 99.19-5 100.64-6.15L100.64-6.15 103.19-2.65Q99.69 0.75 94.79 0.75L94.79 0.75Q89.59 0.75 86.81-2.85 84.04-6.45 84.04-13L84.04-13Q84.04-19.55 86.69-23.35 89.34-27.15 94.19-27.15L94.19-27.15Q98.84-27.15 101.44-23.78 104.04-20.4 104.04-13.85L104.04-13.85ZM98.04-15.3L98.04-15.65Q98.04-19.4 97.14-21.13 96.24-22.85 94.24-22.85L94.24-22.85Q92.39-22.85 91.41-21.18 90.44-19.5 90.24-15.3L90.24-15.3 98.04-15.3ZM126.99-26.45L119.99 0.1Q118.69 4.9 115.79 7.65 112.89 10.4 108.04 10.85L108.04 10.85 107.34 6.5Q110.49 5.85 112.06 4.42 113.64 3 114.54 0L114.54 0 112.24 0 105.54-26.45 111.79-26.45 116.19-4.1 120.89-26.45 126.99-26.45Z" opacity="1" transform="matrix(1,0,0,1,0,0)" fill="#ffffff" class="wordmark-text-0" data-fill-palette-color="primary" id="text-0"></path></svg></g></svg></g></svg></g></svg></g><g></g></svg></g></svg></g><g><path d="M96.571 55.062A122.216 122.216 0 0 1 298.949 55.062L290.552 55.062A113.819 113.819 0 0 0 104.968 55.062L96.571 55.062M96.571 192.138A122.216 122.216 0 0 0 298.949 192.138L290.552 192.138A113.819 113.819 0 0 1 104.968 192.138L96.571 192.138" fill="#da7c25" stroke="transparent" data-fill-palette-color="tertiary"></path></g></svg></g><defs></defs></svg><rect width="395.52" height="247.2" fill="none" stroke="none" visibility="hidden"></rect></g></svg></g></svg>