<svg xmlns="http://www.w3.org/2000/svg" version="1.1" xmlns:xlink="http://www.w3.org/1999/xlink" xmlns:svgjs="http://svgjs.dev/svgjs" width="1500" height="1500" viewBox="0 0 1500 1500"><rect width="1500" height="1500" fill="#1f2041"></rect><g transform="matrix(0.6666666666666666,0,0,0.6666666666666666,250.00110085406993,187.66666666666674)"><svg viewBox="0 0 320 360" data-background-color="#1f2041" preserveAspectRatio="xMidYMid meet" height="1687" width="1500" xmlns="http://www.w3.org/2000/svg" xmlns:xlink="http://www.w3.org/1999/xlink"><g id="tight-bounds" transform="matrix(1,0,0,1,0.00010353528136874957,0)"><svg viewBox="0 0 320 360" height="360" width="320"><g><svg></svg></g><g><svg viewBox="0 0 320 360" height="360" width="320"><g><path d="M307.925 179.999l6.575-11.387c11.322-19.607 4.604-44.679-15.003-56.001l-11.387-6.575v-13.151c0-22.639-18.354-40.994-40.994-40.994h-13.151l-6.575-11.387c-11.322-19.607-36.393-26.325-56.001-15.003l-11.39 6.572-11.387-6.576c-19.607-11.318-44.679-4.6-56.001 15.007l-6.575 11.387h-13.151c-22.639 0-40.994 18.354-40.994 40.994v13.151l-11.387 6.575c-19.607 11.322-26.325 36.393-15.003 56.001l6.572 11.387-6.576 11.387c-11.318 19.607-4.6 44.679 15.007 56l11.387 6.576v13.15c0 22.639 18.354 40.994 40.994 40.994h13.151l6.575 11.387c11.322 19.607 36.393 26.325 56.001 15.003l11.387-6.571 11.387 6.575c19.607 11.322 44.679 4.604 56-15.003l6.576-11.387h13.15c22.639 0 40.994-18.354 40.994-40.994v-13.151l11.387-6.575c19.607-11.322 26.325-36.393 15.003-56.001zM297.702 115.716c8.655 4.996 14.842 13.062 17.428 22.713 2.586 9.65 1.261 19.734-3.735 28.384l-5.538 9.596-17.747-30.74v-35.494zM251.155 271.155l-57.791 33.365h-66.731l-57.791-33.365-33.365-57.791v-66.731l33.365-57.791 57.791-33.365h66.731l57.791 33.365 33.365 57.791v66.731zM284.517 220.539v31.351l-27.151 15.676zM247.566 277.366l-15.676 27.151h-31.351zM187.15 308.106l-27.151 15.676-27.151-15.676zM119.459 304.517h-31.352l-15.676-27.151zM62.632 267.566l-27.151-15.676v-31.351zM31.891 207.15l-15.675-27.151 15.675-27.151zM35.481 139.459v-31.352l27.151-15.676zM72.431 82.632l15.676-27.151h31.352zM132.848 51.891l27.151-15.675 27.151 15.675zM200.539 55.481h31.351l15.676 27.151zM257.366 92.431l27.151 15.676v31.352zM288.106 152.848l15.676 27.151-15.676 27.151zM247.112 55.481c9.992 0 19.384 3.889 26.452 10.956 7.063 7.063 10.956 16.46 10.957 26.452v11.079l-30.741-17.747-17.747-30.74zM173.18 28.606c8.655-4.996 18.735-6.322 28.385-3.735 9.65 2.586 17.716 8.777 22.712 17.428l5.538 9.596h-35.494l-30.741-17.747zM95.716 42.295c4.996-8.655 13.062-14.842 22.713-17.428 9.65-2.586 19.734-1.261 28.384 3.736l9.596 5.537-30.74 17.747h-35.494zM35.481 92.885c0-9.992 3.889-19.384 10.956-26.452 7.063-7.063 16.46-10.956 26.452-10.956h11.079l-17.747 30.74-30.74 17.747zM8.606 166.817c-4.996-8.655-6.322-18.735-3.735-28.385 2.586-9.65 8.777-17.716 17.428-22.712l9.596-5.538v35.495l-17.747 30.74zM22.295 244.281c-8.655-4.996-14.842-13.062-17.428-22.712-2.586-9.65-1.261-19.734 3.736-28.385l5.537-9.596 17.747 30.74v35.495zM72.885 304.517c-9.992 0-19.384-3.889-26.452-10.957-7.063-7.063-10.956-16.46-10.956-26.451v-11.08l30.74 17.747 17.747 30.741zM146.817 331.391c-8.655 4.996-18.735 6.322-28.385 3.735-9.65-2.586-17.716-8.777-22.712-17.428l-5.538-9.596h35.495l30.74 17.747zM224.281 317.702c-4.996 8.655-13.062 14.842-22.712 17.428-9.65 2.586-19.734 1.261-28.385-3.735l-9.596-5.538 30.74-17.747h35.495zM284.517 267.112c0 9.992-3.889 19.384-10.957 26.452-7.063 7.063-16.46 10.956-26.451 10.957h-11.08l17.747-30.741 30.741-17.747zM315.13 221.565c-2.586 9.65-8.777 17.716-17.428 22.712l-9.596 5.538v-35.494l17.747-30.741 5.538 9.596c4.996 8.658 6.326 18.739 3.739 28.389z" fill="#4b3f72" fill-rule="nonzero" stroke="none" stroke-width="1" stroke-linecap="butt" stroke-linejoin="miter" stroke-miterlimit="10" stroke-dasharray="" stroke-dashoffset="0" font-family="none" font-weight="none" font-size="none" text-anchor="none" style="mix-blend-mode: normal" data-fill-palette-color="tertiary"></path></g><g transform="matrix(1,0,0,1,64,142.45177045177044)"><svg viewBox="0 0 192 75.0964590964591" height="75.0964590964591" width="192"><g><svg viewBox="0 0 192 75.0964590964591" height="75.0964590964591" width="192"><g><svg viewBox="0 0 192 75.0964590964591" height="75.0964590964591" width="192"><g id="textblocktransform"><svg viewBox="0 0 192 75.0964590964591" height="75.0964590964591" width="192" id="textblock"><g><svg viewBox="0 0 192 75.0964590964591" height="75.0964590964591" width="192"><g transform="matrix(1,0,0,1,0,0)"><svg width="192" viewBox="0 -37.45 122.84 48.050000000000004" height="75.0964590964591" data-palette-color="#ffffff"><path d="M9-34.45L9-4.75Q9 0.2 7.05 2.73 5.1 5.25 1.2 6.75L1.2 6.75 0 3.55Q1.9 2.55 2.83 1.53 3.75 0.5 4.1-0.95 4.45-2.4 4.45-4.95L4.45-4.95 4.45-34.45 9-34.45ZM33.3-13.95Q33.3-12.85 33.2-11.65L33.2-11.65 19.4-11.65Q19.6-6.9 20.97-4.95 22.35-3 24.9-3L24.9-3Q26.55-3 27.85-3.53 29.15-4.05 30.55-5.2L30.55-5.2 32.5-2.55Q29.2 0.6 24.75 0.6L24.75 0.6Q20.05 0.6 17.45-2.88 14.85-6.35 14.85-12.9L14.85-12.9Q14.85-19.45 17.32-23.18 19.8-26.9 24.3-26.9L24.3-26.9Q28.65-26.9 30.97-23.63 33.3-20.35 33.3-13.95L33.3-13.95ZM29.05-14.9L29.05-15.25Q29.05-19.55 27.9-21.5 26.75-23.45 24.3-23.45L24.3-23.45Q22.1-23.45 20.85-21.48 19.6-19.5 19.4-14.9L19.4-14.9 29.05-14.9ZM46.95-33.9Q45.35-33.9 44.6-33.1 43.85-32.3 43.85-30.55L43.85-30.55 43.85-26.35 49.15-26.35 48.65-22.9 43.85-22.9 43.85 0 39.45 0 39.45-22.9 35.8-22.9 35.8-26.35 39.45-26.35 39.45-30.5Q39.45-33.6 41.32-35.52 43.2-37.45 46.6-37.45L46.6-37.45Q49.35-37.45 51.95-36.1L51.95-36.1 50.65-33Q48.8-33.9 46.95-33.9L46.95-33.9ZM61.09-33.9Q59.49-33.9 58.74-33.1 57.99-32.3 57.99-30.55L57.99-30.55 57.99-26.35 63.29-26.35 62.79-22.9 57.99-22.9 57.99 0 53.59 0 53.59-22.9 49.94-22.9 49.94-26.35 53.59-26.35 53.59-30.5Q53.59-33.6 55.47-35.52 57.34-37.45 60.74-37.45L60.74-37.45Q63.49-37.45 66.09-36.1L66.09-36.1 64.79-33Q62.94-33.9 61.09-33.9L61.09-33.9ZM77.34-26.9Q78.44-26.9 79.34-26.6L79.34-26.6 78.59-22.35Q77.59-22.6 76.79-22.6L76.79-22.6Q74.84-22.6 73.59-20.85 72.34-19.1 71.64-15.5L71.64-15.5 71.64 0 67.24 0 67.24-26.35 71.04-26.35 71.39-21.45Q73.24-26.9 77.34-26.9L77.34-26.9ZM100.44-13.95Q100.44-12.85 100.34-11.65L100.34-11.65 86.54-11.65Q86.74-6.9 88.11-4.95 89.49-3 92.04-3L92.04-3Q93.69-3 94.99-3.53 96.29-4.05 97.69-5.2L97.69-5.2 99.64-2.55Q96.34 0.6 91.89 0.6L91.89 0.6Q87.19 0.6 84.59-2.88 81.99-6.35 81.99-12.9L81.99-12.9Q81.99-19.45 84.46-23.18 86.94-26.9 91.44-26.9L91.44-26.9Q95.79-26.9 98.11-23.63 100.44-20.35 100.44-13.95L100.44-13.95ZM96.19-14.9L96.19-15.25Q96.19-19.55 95.04-21.5 93.89-23.45 91.44-23.45L91.44-23.45Q89.24-23.45 87.99-21.48 86.74-19.5 86.54-14.9L86.54-14.9 96.19-14.9ZM122.84-26.35L115.64 0.15Q114.39 4.7 111.94 7.35 109.49 10 105.14 10.6L105.14 10.6 104.64 7.25Q107.79 6.55 109.24 4.95 110.69 3.35 111.69 0L111.69 0 110.04 0 102.94-26.35 107.44-26.35 112.94-3.2 118.39-26.35 122.84-26.35Z" opacity="1" transform="matrix(1,0,0,1,0,0)" fill="#ffffff" class="wordmark-text-0" data-fill-palette-color="primary" id="text-0"></path></svg></g></svg></g></svg></g></svg></g><g></g></svg></g></svg></g></svg></g><defs></defs></svg><rect width="320" height="360" fill="none" stroke="none" visibility="hidden"></rect></g></svg></g></svg>